<svg xmlns="http://www.w3.org/2000/svg" viewBox="0 0 240 240" role="img" aria-label="Exploring To Know">
  
  <defs>
    <linearGradient id="grn" x1="0" y1="0" x2="0" y2="1">
      <stop offset="0" stop-color="#11644A"/><stop offset="1" stop-color="#0A3A2C"/>
    </linearGradient>
    <linearGradient id="gold" x1="0" y1="0" x2="0.4" y2="1">
      <stop offset="0" stop-color="#F0D080"/><stop offset="1" stop-color="#C9962E"/>
    </linearGradient>
    <linearGradient id="cream" x1="0" y1="0" x2="0" y2="1">
      <stop offset="0" stop-color="#F6E6BB"/><stop offset="1" stop-color="#C9962E"/>
    </linearGradient>
  </defs>
  <rect x="0" y="0" width="240" height="240" rx="54" fill="url(#grn)"/>
  <g transform="translate(120 120) scale(1)"><path d="M0 0 C -16 -20.9, -9.6 -49.3, 0 -58 C 9.6 -49.3, 16 -20.9, 0 0 Z" transform="rotate(15)" fill="url(#cream)" opacity="0.92"/><path d="M0 0 C -16 -20.9, -9.6 -49.3, 0 -58 C 9.6 -49.3, 16 -20.9, 0 0 Z" transform="rotate(45)" fill="url(#cream)" opacity="0.92"/><path d="M0 0 C -16 -20.9, -9.6 -49.3, 0 -58 C 9.6 -49.3, 16 -20.9, 0 0 Z" transform="rotate(75)" fill="url(#cream)" opacity="0.92"/><path d="M0 0 C -16 -20.9, -9.6 -49.3, 0 -58 C 9.6 -49.3, 16 -20.9, 0 0 Z" transform="rotate(105)" fill="url(#cream)" opacity="0.92"/><path d="M0 0 C -16 -20.9, -9.6 -49.3, 0 -58 C 9.6 -49.3, 16 -20.9, 0 0 Z" transform="rotate(135)" fill="url(#cream)" opacity="0.92"/><path d="M0 0 C -16 -20.9, -9.6 -49.3, 0 -58 C 9.6 -49.3, 16 -20.9, 0 0 Z" transform="rotate(165)" fill="url(#cream)" opacity="0.92"/><path d="M0 0 C -16 -20.9, -9.6 -49.3, 0 -58 C 9.6 -49.3, 16 -20.9, 0 0 Z" transform="rotate(195)" fill="url(#cream)" opacity="0.92"/><path d="M0 0 C -16 -20.9, -9.6 -49.3, 0 -58 C 9.6 -49.3, 16 -20.9, 0 0 Z" transform="rotate(225)" fill="url(#cream)" opacity="0.92"/><path d="M0 0 C -16 -20.9, -9.6 -49.3, 0 -58 C 9.6 -49.3, 16 -20.9, 0 0 Z" transform="rotate(255)" fill="url(#cream)" opacity="0.92"/><path d="M0 0 C -16 -20.9, -9.6 -49.3, 0 -58 C 9.6 -49.3, 16 -20.9, 0 0 Z" transform="rotate(285)" fill="url(#cream)" opacity="0.92"/><path d="M0 0 C -16 -20.9, -9.6 -49.3, 0 -58 C 9.6 -49.3, 16 -20.9, 0 0 Z" transform="rotate(315)" fill="url(#cream)" opacity="0.92"/><path d="M0 0 C -16 -20.9, -9.6 -49.3, 0 -58 C 9.6 -49.3, 16 -20.9, 0 0 Z" transform="rotate(345)" fill="url(#cream)" opacity="0.92"/><path d="M0 0 C -23 -34.6, -13.8 -81.6, 0 -96 C 13.8 -81.6, 23 -34.6, 0 0 Z" transform="rotate(0)" fill="url(#gold)"/><path d="M0 0 C -23 -34.6, -13.8 -81.6, 0 -96 C 13.8 -81.6, 23 -34.6, 0 0 Z" transform="rotate(30)" fill="url(#gold)"/><path d="M0 0 C -23 -34.6, -13.8 -81.6, 0 -96 C 13.8 -81.6, 23 -34.6, 0 0 Z" transform="rotate(60)" fill="url(#gold)"/><path d="M0 0 C -23 -34.6, -13.8 -81.6, 0 -96 C 13.8 -81.6, 23 -34.6, 0 0 Z" transform="rotate(90)" fill="url(#gold)"/><path d="M0 0 C -23 -34.6, -13.8 -81.6, 0 -96 C 13.8 -81.6, 23 -34.6, 0 0 Z" transform="rotate(120)" fill="url(#gold)"/><path d="M0 0 C -23 -34.6, -13.8 -81.6, 0 -96 C 13.8 -81.6, 23 -34.6, 0 0 Z" transform="rotate(150)" fill="url(#gold)"/><path d="M0 0 C -23 -34.6, -13.8 -81.6, 0 -96 C 13.8 -81.6, 23 -34.6, 0 0 Z" transform="rotate(180)" fill="url(#gold)"/><path d="M0 0 C -23 -34.6, -13.8 -81.6, 0 -96 C 13.8 -81.6, 23 -34.6, 0 0 Z" transform="rotate(210)" fill="url(#gold)"/><path d="M0 0 C -23 -34.6, -13.8 -81.6, 0 -96 C 13.8 -81.6, 23 -34.6, 0 0 Z" transform="rotate(240)" fill="url(#gold)"/><path d="M0 0 C -23 -34.6, -13.8 -81.6, 0 -96 C 13.8 -81.6, 23 -34.6, 0 0 Z" transform="rotate(270)" fill="url(#gold)"/><path d="M0 0 C -23 -34.6, -13.8 -81.6, 0 -96 C 13.8 -81.6, 23 -34.6, 0 0 Z" transform="rotate(300)" fill="url(#gold)"/><path d="M0 0 C -23 -34.6, -13.8 -81.6, 0 -96 C 13.8 -81.6, 23 -34.6, 0 0 Z" transform="rotate(330)" fill="url(#gold)"/><circle r="17" fill="url(#gold)"/><circle r="7.5" fill="#0C4B39"/></g>
</svg>
